<?xml version="1.0" encoding="utf-8"?>
<!-- Generator: Adobe Illustrator 16.0.0, SVG Export Plug-In . SVG Version: 6.00 Build 0)  -->
<!DOCTYPE svg PUBLIC "-//W3C//DTD SVG 1.1//EN" "http://www.w3.org/Graphics/SVG/1.1/DTD/svg11.dtd">
<svg version="1.1" id="Capa_1" xmlns="http://www.w3.org/2000/svg" xmlns:xlink="http://www.w3.org/1999/xlink" x="0px" y="0px"
	 width="212px" height="344px" viewBox="0 0 212 344" enable-background="new 0 0 212 344" xml:space="preserve">
<g>
	<g>
		<g>
			<path fill="#FFD620" d="M49.578,4.881c-1.996-4.244-7.056-6.067-11.302-4.073L14.643,7.044c-4.246,1.995-6.07,7.053-4.075,11.298
				l6.585,10.51l35.759-17.167L49.578,4.881z"/>
			<path d="M119.685,212.4l-9.243-20.28l-9.524,4.406l9.29,20.215c1.176,2.567,4.213,3.695,6.782,2.52l0.175-0.081
				C119.734,218.003,120.862,214.968,119.685,212.4z"/>
			<path d="M129.11,194.325l-4.021-9.156l-8.188,3.75l4.021,9.157c1.017,2.218,3.64,3.192,5.859,2.176l0.151-0.069
				C129.152,199.166,130.127,196.544,129.11,194.325z"/>
			<g>
				<g>
					<path fill="#FFD620" d="M141.783,163.523c-1.713-3.65-5.91-5.294-9.374-3.669l-45.483,21.318
						c-3.465,1.623-4.886,5.899-3.173,9.549c1.712,3.65,5.91,5.293,9.375,3.669l45.483-21.317
						C142.075,171.447,143.496,167.172,141.783,163.523z"/>
				</g>
			</g>
			<path fill="#FFD620" d="M49.912,93.503c-13.863,0-25.101,11.232-25.101,25.088c0,13.856,11.238,25.089,25.101,25.089
				c13.862,0,25.1-11.232,25.1-25.089C75.012,104.736,63.774,93.503,49.912,93.503z"/>
			<g>
				<path fill="#FFD620" d="M177.074,268.711l-5.471-12.441c-1.965-4.258-7.011-6.119-11.271-4.155L120.89,270.49
					c-3.456,1.593-5.333,5.212-4.871,8.794l11.062-5.199c1.089-0.512,2.249-0.772,3.447-0.772c3.107,0,5.97,1.802,7.313,4.597
					l1.722,3.37c1.902,4.044,0.158,8.882-3.888,10.783l-10.853,5.108c2.447,2.334,6.165,3.071,9.424,1.57l38.67-18.764
					C177.176,278.015,179.038,272.971,177.074,268.711z"/>
			</g>
			<path d="M166.596,221.261l-19.55,10.566c0,0-56.813,25.126-62.509,25.715c-8.753,0.905-28.833-5.532-26.13-43.614
				c2.703-38.083,23.169-50.804,23.169-50.804l6.436,11.081l29.605-13.606L54.457,15.347L15.93,33.677l27.154,55.399
				c2.196-0.507,4.479-0.784,6.828-0.784c16.715,0,30.313,13.592,30.313,30.299c0,9.456-4.358,17.911-11.17,23.472
				c0,0-32.981,25.083-40.768,66.447C20.817,248.186,49.011,279,49.011,279h4.322c5.57-6,11.424-9,17.303-9h7.337
				c6.144,0,11.75,4,16.491,9h5.649c0,0-1.03-6.289,1.802-10.277s73.973-37.104,73.973-37.104L166.596,221.261z M170.629,230.306
				c0,0-17.944,9.735-33.568,16.965c-35.42,16.387-36.826,18.024-37.666,19.208c-2.006,2.824-2.513,6.521-2.56,8.521h-1.138
				c-5.818-5-11.775-8-17.724-8h-7.337c-6.362,0-12.587,3-18.52,8h-1.689c-2.024-2-7.266-8.809-11.884-18.402
				c-5.33-11.07-10.909-28.211-7.22-47.803c3.89-20.662,14.421-36.946,22.571-47.04c8.895-11.016,16.979-17.137,17.059-17.198
				l1.913-1.755c6.669-6.303,10.449-14.993,10.449-24.221c0-18.409-14.984-33.381-33.402-33.381c-1.695,0-3.4,0.135-5.092,0.398
				L20.079,35.122l32.818-15.615l60.681,139.548l-24.304,11.169l-6.625-11.404l-2.704,1.681
				c-0.89,0.553-21.837,14.003-24.619,53.208c-0.657,9.257-0.039,17.378,1.839,24.136c1.654,5.955,4.289,10.902,7.831,14.702
				c6.866,7.367,14.847,8.162,17.959,8.161c0.65,0,1.29-0.031,1.899-0.095c4.899-0.507,48.193-21.163,48.193-21.163l32.308-14.696
				L170.629,230.306z"/>
			<path d="M136.417,282.757l-1.692-3.31c-1.09-2.314-3.85-3.309-6.166-2.221L102.96,289.26c0.136,0.204,0.271,0.409,0.403,0.611
				c2.268,3.481,4.295,7.123,6.055,10.694l24.777-11.646C136.512,287.83,137.506,285.071,136.417,282.757z"/>
			<path d="M193.047,320h-81.739c-3.27-14-18.453-44-33.335-44h-7.337c-16.507,0-30.512,30-33.492,44H19.663
				C8.999,320,0,328.71,0,339.369V344h212v-4.631C212,328.71,203.711,320,193.047,320z M209,341H3v-1.631
				C3,330.643,10.507,323,19.663,323h19.993l0.512-2.186c1.369-6.562,5.38-17.249,11.254-26.462
				C55.091,288.597,62.467,279,70.635,279h7.337c12.17,0,26.947,27.046,30.324,41.794l0.549,2.206h84.201
				c9.026,0,15.953,7.347,15.953,16.369V341z"/>
		</g>
	</g>
	<g>
		<g>
			<path fill="none" stroke="#FFFFFF" stroke-width="2.539" stroke-miterlimit="10" d="M154.176,210.213
				c-5.371-5.353-14.098-5.341-19.453,0.028l-0.146,0.146c-2.703,2.71-4.49,4.499-6.422,12.013
				c-0.217,0.846-0.221,0.859-0.357,1.506c-0.129,0.613-0.397,1.885-1.141,5.231c-0.132,0.583,0.237,1.165,0.824,1.294
				c0.584,0.131,1.164-0.238,1.295-0.823c0.747-3.356,1.018-4.637,1.146-5.253c0.129-0.605,0.129-0.605,0.336-1.415
				c1.784-6.939,3.316-8.475,5.854-11.017l0.147-0.147c4.511-4.521,11.859-4.532,16.383-0.024
				c4.523,4.509,4.534,11.854,0.023,16.375l-0.146,0.147c-2.537,2.544-4.068,4.08-11.006,5.884c-0.809,0.21-0.809,0.21-1.415,0.339
				c-0.615,0.133-1.896,0.406-5.252,1.162c-0.585,0.133-0.952,0.712-0.819,1.298c0.046,0.209,0.149,0.389,0.291,0.529
				c0.254,0.254,0.629,0.376,1.006,0.291c3.345-0.754,4.617-1.026,5.229-1.156c0.646-0.139,0.662-0.142,1.508-0.362
				c7.512-1.951,9.297-3.741,11.998-6.453l0.146-0.146C159.561,224.288,159.547,215.566,154.176,210.213z"/>
			<path d="M154.176,210.213c-5.371-5.353-14.098-5.341-19.453,0.028l-0.146,0.146c-2.703,2.71-4.49,4.499-6.422,12.013
				c-0.217,0.846-0.221,0.859-0.357,1.506c-0.129,0.613-0.397,1.885-1.141,5.231c-0.132,0.583,0.237,1.165,0.824,1.294
				c0.584,0.131,1.164-0.238,1.295-0.823c0.747-3.356,1.018-4.637,1.146-5.253c0.129-0.605,0.129-0.605,0.336-1.415
				c1.784-6.939,3.316-8.475,5.854-11.017l0.147-0.147c4.511-4.521,11.859-4.532,16.383-0.024
				c4.523,4.509,4.534,11.854,0.023,16.375l-0.146,0.147c-2.537,2.544-4.068,4.08-11.006,5.884c-0.809,0.21-0.809,0.21-1.415,0.339
				c-0.615,0.133-1.896,0.406-5.252,1.162c-0.585,0.133-0.952,0.712-0.819,1.298c0.046,0.209,0.149,0.389,0.291,0.529
				c0.254,0.254,0.629,0.376,1.006,0.291c3.345-0.754,4.617-1.026,5.229-1.156c0.646-0.139,0.662-0.142,1.508-0.362
				c7.512-1.951,9.297-3.741,11.998-6.453l0.146-0.146C159.561,224.288,159.547,215.566,154.176,210.213z"/>
		</g>
		<g>
			<path fill="none" stroke="#FFFFFF" stroke-width="2.539" stroke-miterlimit="10" d="M133.795,238.604l-7.732-7.706
				c-0.424-0.424-1.111-0.422-1.535,0.003c-0.424,0.423-0.422,1.11,0.002,1.534l7.733,7.706c0.424,0.424,1.111,0.421,1.534-0.002
				C134.221,239.713,134.22,239.026,133.795,238.604z"/>
			<path d="M133.795,238.604l-7.732-7.706c-0.424-0.424-1.111-0.422-1.535,0.003c-0.424,0.423-0.422,1.11,0.002,1.534l7.733,7.706
				c0.424,0.424,1.111,0.421,1.534-0.002C134.221,239.713,134.22,239.026,133.795,238.604z"/>
		</g>
		<g>
			<path fill="none" stroke="#FFFFFF" stroke-width="2.539" stroke-miterlimit="10" d="M130.671,240.733l-6.731-6.709
				c-0.426-0.423-1.111-0.423-1.536,0.003c-0.423,0.424-0.423,1.111,0.002,1.535l6.731,6.709c0.425,0.424,1.113,0.422,1.536-0.002
				C131.098,241.845,131.096,241.157,130.671,240.733z"/>
			<path d="M130.671,240.733l-6.731-6.709c-0.426-0.423-1.111-0.423-1.536,0.003c-0.423,0.424-0.423,1.111,0.002,1.535l6.731,6.709
				c0.425,0.424,1.113,0.422,1.536-0.002C131.098,241.845,131.096,241.157,130.671,240.733z"/>
		</g>
		<g>
			<path fill="none" stroke="#FFFFFF" stroke-width="2.539" stroke-miterlimit="10" d="M127.323,242.644l-5.285-5.269
				c-0.425-0.423-1.112-0.423-1.535,0.002c-0.424,0.425-0.423,1.111,0.002,1.534l5.285,5.269c0.425,0.424,1.112,0.423,1.536-0.003
				C127.75,243.754,127.748,243.066,127.323,242.644z"/>
			<path d="M127.323,242.644l-5.285-5.269c-0.425-0.423-1.112-0.423-1.535,0.002c-0.424,0.425-0.423,1.111,0.002,1.534l5.285,5.269
				c0.425,0.424,1.112,0.423,1.536-0.003C127.75,243.754,127.748,243.066,127.323,242.644z"/>
		</g>
		<g>
			<path fill="none" stroke="#FFFFFF" stroke-width="2.539" stroke-miterlimit="10" d="M120.586,244.152
				c0.969,0.965,2.395,1.187,3.575,0.669l-4.254-4.239C119.394,241.764,119.619,243.188,120.586,244.152z"/>
			<path d="M120.586,244.152c0.969,0.965,2.395,1.187,3.575,0.669l-4.254-4.239C119.394,241.764,119.619,243.188,120.586,244.152z"
				/>
		</g>
		<path fill="#FFD620" d="M137.934,218.074c0.021-0.198-0.122-0.377-0.32-0.4c-0.197-0.021-0.377,0.122-0.399,0.319
			c-0.011,0.102-0.014,0.208-0.013,0.318l-5.583,11.062c-0.072,0.145-0.04,0.312,0.067,0.421c0.026,0.025,0.058,0.047,0.094,0.065
			c0.178,0.09,0.395,0.02,0.485-0.16l5.159-10.222c0.315,0.909,0.945,1.811,1.77,2.236c0.18,0.092,0.358,0.157,0.54,0.196
			c0.105,0.506,0.361,0.997,0.759,1.395c0.469,0.468,1.062,0.759,1.666,0.826c0.088,0.287,0.223,0.588,0.405,0.89
			c0.536,0.896,1.214,1.485,1.999,1.753l-10.092,5.124c-0.179,0.091-0.25,0.309-0.159,0.485c0.018,0.037,0.041,0.067,0.067,0.095
			c0.108,0.107,0.277,0.139,0.42,0.066l11.07-5.623c0.049-0.004,0.099-0.001,0.149-0.008c0.198-0.023,0.34-0.205,0.315-0.403
			s-0.205-0.34-0.403-0.314c-1.127,0.14-2.051-0.382-2.747-1.546c-0.078-0.131-0.185-0.328-0.271-0.557
			c0.396-0.089,0.748-0.288,1.016-0.58c0.532-0.58,0.75-1.178,0.598-1.639c-0.088-0.271-0.298-0.457-0.574-0.512
			c-0.449-0.089-0.99,0.188-1.479,0.761c-0.298,0.349-0.442,0.777-0.438,1.254c-0.68-0.155-1.338-0.757-1.548-1.446
			c0.412-0.071,0.814-0.276,1.188-0.611c0.524-0.471,0.772-1.026,0.665-1.486c-0.07-0.294-0.283-0.517-0.572-0.596
			c-0.454-0.126-1.007,0.107-1.52,0.638c-0.331,0.344-0.517,0.79-0.561,1.268c-0.055-0.021-0.107-0.045-0.162-0.073
			C138.516,220.551,137.828,219.007,137.934,218.074z M143.811,222.073c0.009,0.001,0.013,0.002,0.018,0.006
			c0.004,0.003,0.006,0.01,0.011,0.021c0.036,0.112-0.009,0.449-0.446,0.924c-0.164,0.181-0.382,0.303-0.633,0.362
			c-0.008-0.279,0.062-0.557,0.263-0.792C143.387,222.17,143.693,222.049,143.811,222.073z M141.575,219.937
			c0.016,0.004,0.028,0.01,0.037,0.019c0.01,0.009,0.017,0.024,0.021,0.046c0.027,0.117-0.034,0.414-0.442,0.781
			c-0.257,0.229-0.518,0.371-0.782,0.427c0.028-0.317,0.147-0.61,0.358-0.829C141.17,219.965,141.465,219.906,141.575,219.937z"/>
		<g>
			<path fill="none" stroke="#FFFFFF" stroke-width="2.539" stroke-miterlimit="10" d="M156.102,208.562
				c0.354,0.354,0.927,0.352,1.279-0.001l2.844-2.851c0.354-0.354,0.353-0.927-0.001-1.279c-0.354-0.354-0.927-0.353-1.279,0.002
				l-2.845,2.851C155.746,207.637,155.748,208.209,156.102,208.562z"/>
			<path fill="#FFD620" d="M156.102,208.562c0.354,0.354,0.927,0.352,1.279-0.001l2.844-2.851c0.354-0.354,0.353-0.927-0.001-1.279
				c-0.354-0.354-0.927-0.353-1.279,0.002l-2.845,2.851C155.746,207.637,155.748,208.209,156.102,208.562z"/>
		</g>
		<g>
			<path fill="none" stroke="#FFFFFF" stroke-width="2.539" stroke-miterlimit="10" d="M160.721,217.474
				c0.032,0.191,0.124,0.358,0.252,0.486c0.201,0.2,0.493,0.304,0.792,0.253l3.97-0.679c0.492-0.083,0.823-0.552,0.739-1.044
				s-0.552-0.822-1.044-0.74l-3.97,0.679C160.967,216.514,160.637,216.98,160.721,217.474z"/>
			<path fill="#FFD620" d="M160.721,217.474c0.032,0.191,0.124,0.358,0.252,0.486c0.201,0.2,0.493,0.304,0.792,0.253l3.97-0.679
				c0.492-0.083,0.823-0.552,0.739-1.044s-0.552-0.822-1.044-0.74l-3.97,0.679C160.967,216.514,160.637,216.98,160.721,217.474z"/>
		</g>
		<g>
			<path fill="none" stroke="#FFFFFF" stroke-width="2.539" stroke-miterlimit="10" d="M159.745,228.618l3.628,1.745
				c0.451,0.217,0.992,0.027,1.209-0.423c0.216-0.45,0.026-0.99-0.423-1.207l-3.629-1.745c-0.45-0.219-0.991-0.027-1.209,0.423
				c-0.171,0.355-0.088,0.768,0.177,1.032C159.568,228.513,159.65,228.571,159.745,228.618z"/>
			<path fill="#FFD620" d="M159.745,228.618l3.628,1.745c0.451,0.217,0.992,0.027,1.209-0.423c0.216-0.45,0.026-0.99-0.423-1.207
				l-3.629-1.745c-0.45-0.219-0.991-0.027-1.209,0.423c-0.171,0.355-0.088,0.768,0.177,1.032
				C159.568,228.513,159.65,228.571,159.745,228.618z"/>
		</g>
		<g>
			<path fill="none" stroke="#FFFFFF" stroke-width="2.539" stroke-miterlimit="10" d="M155.601,238.582l-1.947-3.525
				c-0.242-0.436-0.792-0.597-1.229-0.354s-0.596,0.793-0.354,1.229l1.946,3.524c0.043,0.077,0.096,0.146,0.154,0.205
				c0.277,0.276,0.715,0.35,1.076,0.15C155.683,239.569,155.842,239.019,155.601,238.582z"/>
			<path fill="#FFD620" d="M155.601,238.582l-1.947-3.525c-0.242-0.436-0.792-0.597-1.229-0.354s-0.596,0.793-0.354,1.229
				l1.946,3.524c0.043,0.077,0.096,0.146,0.154,0.205c0.277,0.276,0.715,0.35,1.076,0.15
				C155.683,239.569,155.842,239.019,155.601,238.582z"/>
		</g>
		<g>
			<path fill="none" stroke="#FFFFFF" stroke-width="2.539" stroke-miterlimit="10" d="M145.902,202.404
				c-0.05,0.3,0.054,0.59,0.255,0.79c0.128,0.128,0.296,0.219,0.488,0.25c0.493,0.084,0.959-0.25,1.042-0.742l0.666-3.971
				c0.083-0.492-0.25-0.957-0.742-1.04c-0.493-0.084-0.959,0.25-1.043,0.743L145.902,202.404z"/>
			<path fill="#FFD620" d="M145.902,202.404c-0.05,0.3,0.054,0.59,0.255,0.79c0.128,0.128,0.296,0.219,0.488,0.25
				c0.493,0.084,0.959-0.25,1.042-0.742l0.666-3.971c0.083-0.492-0.25-0.957-0.742-1.04c-0.493-0.084-0.959,0.25-1.043,0.743
				L145.902,202.404z"/>
		</g>
		<g>
			<path fill="none" stroke="#FFFFFF" stroke-width="2.539" stroke-miterlimit="10" d="M137.127,203.663l-1.758-3.622
				c-0.218-0.449-0.759-0.636-1.208-0.42c-0.45,0.22-0.638,0.76-0.421,1.21l1.758,3.621c0.046,0.094,0.105,0.177,0.176,0.247
				c0.265,0.264,0.678,0.345,1.033,0.173C137.157,204.654,137.346,204.113,137.127,203.663z"/>
			<path fill="#FFD620" d="M137.127,203.663l-1.758-3.622c-0.218-0.449-0.759-0.636-1.208-0.42c-0.45,0.22-0.638,0.76-0.421,1.21
				l1.758,3.621c0.046,0.094,0.105,0.177,0.176,0.247c0.265,0.264,0.678,0.345,1.033,0.173
				C137.157,204.654,137.346,204.113,137.127,203.663z"/>
		</g>
		<g>
			<path fill="none" stroke="#FFFFFF" stroke-width="2.539" stroke-miterlimit="10" d="M129.074,210.561l-3.531-1.936
				c-0.438-0.24-0.989-0.08-1.229,0.358c-0.199,0.36-0.124,0.798,0.154,1.074c0.059,0.059,0.127,0.111,0.203,0.154l3.533,1.935
				c0.438,0.24,0.987,0.078,1.227-0.359C129.672,211.35,129.512,210.802,129.074,210.561z"/>
			<path fill="#FFD620" d="M129.074,210.561l-3.531-1.936c-0.438-0.24-0.989-0.08-1.229,0.358c-0.199,0.36-0.124,0.798,0.154,1.074
				c0.059,0.059,0.127,0.111,0.203,0.154l3.533,1.935c0.438,0.24,0.987,0.078,1.227-0.359
				C129.672,211.35,129.512,210.802,129.074,210.561z"/>
		</g>
	</g>
</g>
</svg>
